#!OML:ASF E:\VariousWalksJay\Project 1\Capture day 1\Session 1\Actor2.ASF
:FULLY-SPECIFIED
:DEGREES
762
root -0.310504 17.0382 20.0321 23.0664 -43.8298 -5.58466
lowerback 19.4766 -2.91263 4.28627
upperback 13.7598 -3.66411 -1.9165
thorax 3.70203 -1.66381 -3.88609
lowerneck 3.2665 3.18693 2.63069
upperneck -18.3337 4.57623 0.276712
head -6.0311 1.96993 -0.62236
rclavicle 1.04163e-013 -7.95139e-016
rhumerus -45.5246 20.7574 -90.8046
rradius 74.6423
rwrist 6.26072
rhand -46.4773 11.1478
rfingers 7.12502
rthumb -19.2047 -17.924
lclavicle 1.04163e-013 -7.95139e-016
lhumerus 18.605 -44.3508 67.5579
lradius 81.6021
lwrist 34.5961
lhand -31.4661 0.892247
lfingers 7.12502
lthumb -4.73322 30.8194
rfemur -47.315 2.80205 19.1867
rtibia 93.1755
rfoot -13.1097 -12.2759
rtoes -20.3291
lfemur -44.0718 9.81566 -25.9352
ltibia 30.2627
lfoot -8.52282 -3.0328
ltoes 3.75246
763
root -0.324927 17.0024 20.0898 22.7847 -43.8728 -5.49755
lowerback 20.0058 -2.94658 4.29093
upperback 13.8625 -3.69632 -1.95507
thorax 3.54839 -1.68435 -3.90498
lowerneck 3.1249 3.18712 2.64075
upperneck -18.4267 4.55736 0.191746
head -6.03371 1.96417 -0.647852
rclavicle -4.6118e-014 -4.77083e-015
rhumerus -44.9416 21.0444 -90.7193
rradius 75.2901
rwrist 6.34666
rhand -46.2773 10.5542
rfingers 7.12502
rthumb -19.0124 -18.5365
lclavicle -4.6118e-014 -4.77083e-015
lhumerus 19.8517 -43.8665 66.2687
lradius 81.6629
lwrist 35.0926
lhand -31.4454 1.17115
lfingers 7.12502
lthumb -4.71322 31.0987
rfemur -49.1532 2.69476 19.3104
rtibia 94.5913
rfoot -14.1726 -12.1256
rtoes -20.9866
lfemur -44.2868 9.90831 -26.116
ltibia 31.5254
lfoot -9.39688 -3.09711
ltoes 3.46338
764
root -0.338396 16.9605 20.1458 22.4746 -43.9344 -5.39612
lowerback 20.5645 -2.97505 4.28164
upperback 13.9742 -3.7236 -2.00005
thorax 3.39264 -1.70333 -3.92278
lowerneck 2.97177 3.18951 2.65407
upperneck -18.5294 4.54092 0.104822
head -6.03727 1.95924 -0.674541
rclavicle 4.77083e-015 -5.56597e-015
rhumerus -44.3161 21.355 -90.6178
rradius 76.0185
rwrist 6.41177
rhand -46.0501 9.89959
rfingers 7.12502
rthumb -18.7938 -19.2125
lclavicle 4.77083e-015 -5.56597e-015
lhumerus 21.1897 -43.3069 64.8964
lradius 81.7324
lwrist 35.6269
lhand -31.3954 1.48209
lfingers 7.12502
lthumb -4.66492 31.4107
rfemur -51.0414 2.63202 19.4286
rtibia 95.8733
rfoot -15.1532 -12.0041
rtoes -21.5413
lfemur -44.5442 10.0047 -26.3059
ltibia 32.8844
lfoot -10.2849 -3.15416
ltoes 3.18178
765
root -0.351202 16.9123 20.2002 22.1348 -44.016 -5.2747
lowerback 21.1455 -2.99555 4.25292
upperback 14.0954 -3.74434 -2.05231
thorax 3.23984 -1.72009 -3.93816
lowerneck 2.81043 3.19361 2.67258
upperneck -18.6466 4.52676 0.0172191
head -6.04388 1.9547 -0.702461
rclavicle -7.95139e-015 -1.03368e-014
rhumerus -43.6469 21.6862 -90.4975
rradius 76.8313
rwrist 6.44871
rhand -45.7895 9.18399
rfingers 7.12502
rthumb -18.5432 -19.9522
lclavicle -7.95139e-015 -1.03368e-014
lhumerus 22.6114 -42.6671 63.4537
lradius 81.8087
lwrist 36.1985
lhand -31.3157 1.82134
lfingers 7.12502
lthumb -4.58803 31.7517
rfemur -52.9742 2.61414 19.5354
rtibia 97.0013
rfoot -16.0473 -11.9039
rtoes -22.0117
lfemur -44.843 10.1011 -26.5088
ltibia 34.3343
lfoot -11.1835 -3.20005
ltoes 2.91959
766
root -0.363716 16.8575 20.2533 21.7589 -44.1146 -5.12713
lowerback 21.7454 -3.00844 4.19995
upperback 14.228 -3.76042 -2.11139
thorax 3.09383 -1.7358 -3.94793
lowerneck 2.64501 3.20012 2.69452
upperneck -18.783 4.51613 -0.0696009
head -6.0558 1.95105 -0.73108
rclavicle 3.33958e-014 -3.65764e-014
rhumerus -42.9325 22.0392 -90.3547
rradius 77.731
rwrist 6.44996
rhand -45.4897 8.41258
rfingers 7.12502
rthumb -18.2548 -20.7508
lclavicle 3.33958e-014 -3.65764e-014
lhumerus 24.1043 -41.9406 61.9578
lradius 81.8889
lwrist 36.8036
lhand -31.2118 2.18378
lfingers 7.12502
lthumb -4.48765 32.1162
rfemur -54.9361 2.63788 19.6265
rtibia 97.9539
rfoot -16.854 -11.8145
rtoes -22.4171
lfemur -45.175 10.1913 -26.7267
ltibia 35.867
lfoot -12.0882 -3.22994
ltoes 2.69099
767
root -0.376276 16.7962 20.3055 21.3435 -44.2271 -4.95144
lowerback 22.3606 -3.01343 4.12247
upperback 14.3733 -3.77229 -2.17705
thorax 2.95835 -1.7506 -3.95195
lowerneck 2.48043 3.20884 2.72053
upperneck -18.943 4.50918 -0.154319
head -6.07527 1.94811 -0.76025
rclavicle 1.74931e-014 9.54166e-015
rhumerus -42.1718 22.4102 -90.1866
rradius 78.719
rwrist 6.40888
rhand -45.1453 7.59194
rfingers 7.12502
rthumb -17.9234 -21.6021
lclavicle 1.74931e-014 9.54166e-015
lhumerus 25.6572 -41.1266 60.424
lradius 81.9695
lwrist 37.4369
lhand -31.0929 2.56376
lfingers 7.12502
lthumb -4.37285 32.4986
rfemur -56.9088 2.70154 19.7006
rtibia 98.7106
rfoot -17.5744 -11.7246
rtoes -22.7762
lfemur -45.5307 10.2695 -26.9589
ltibia 37.4732
lfoot -12.9938 -3.23525
ltoes 2.51146
768
root -0.389226 16.7285 20.3571 20.8826 -44.3476 -4.74575
lowerback 22.9905 -3.0116 4.021
upperback 14.533 -3.78189 -2.24784
thorax 2.83583 -1.76543 -3.94877
lowerneck 2.32047 3.21955 2.74891
upperneck -19.1284 4.50583 -0.235871
head -6.10366 1.94582 -0.789462
rclavicle -1.11319e-014 6.04305e-014
rhumerus -41.3644 22.7964 -89.9895
rradius 79.7947
rwrist 6.31888
rhand -44.752 6.73162
rfingers 7.12502
rthumb -17.545 -22.4967
lclavicle -1.11319e-014 6.04305e-014
lhumerus 27.2569 -40.2247 58.87
lradius 82.0461
lwrist 38.0912
lhand -30.9693 2.95728
lfingers 7.12502
lthumb -4.25345 32.8946
rfemur -58.8687 2.80118 19.7571
rtibia 99.2522
rfoot -18.2131 -11.6225
rtoes -23.1041
lfemur -45.897 10.3295 -27.2038
ltibia 39.1417
lfoot -13.8941 -3.20667
ltoes 2.3937
